<?xml version="1.0" encoding="UTF-8"?>
<svg xmlns="http://www.w3.org/2000/svg" xmlns:xlink="http://www.w3.org/1999/xlink" width="196px" height="140px" viewBox="0 0 196 140" version="1.1">
<g id="surface1">
<path style=" stroke:none;fill-rule:nonzero;fill:rgb(0%,25.490196%,43.921569%);fill-opacity:1;" d="M 98 17.5 C 69.046875 17.5 45.5 41.050781 45.5 70 C 45.5 98.949219 69.046875 122.5 98 122.5 C 126.949219 122.5 150.5 98.949219 150.5 70 C 150.5 41.050781 126.949219 17.5 98 17.5 "/>
<path style=" stroke:none;fill-rule:nonzero;fill:rgb(100%,100%,100%);fill-opacity:1;" d="M 97.925781 21.269531 C 84.90625 21.269531 72.664062 26.335938 63.457031 35.546875 C 54.25 44.753906 49.183594 56.992188 49.183594 70.015625 C 49.183594 83.035156 54.25 95.273438 63.457031 104.484375 C 72.664062 113.691406 84.90625 118.761719 97.925781 118.761719 C 110.945312 118.761719 123.1875 113.691406 132.398438 104.484375 C 141.605469 95.273438 146.675781 83.035156 146.675781 70.015625 C 146.675781 56.992188 141.605469 44.753906 132.398438 35.546875 C 123.1875 26.335938 110.945312 21.269531 97.925781 21.269531 M 97.925781 23.195312 C 123.785156 23.195312 144.742188 44.160156 144.742188 70.015625 C 144.742188 95.871094 123.785156 116.832031 97.925781 116.832031 C 72.074219 116.832031 51.109375 95.871094 51.109375 70.015625 C 51.109375 44.160156 72.074219 23.195312 97.925781 23.195312 "/>
<path style=" stroke:none;fill-rule:nonzero;fill:rgb(100%,100%,100%);fill-opacity:1;" d="M 83.890625 36.285156 L 84.09375 31.132812 L 87.492188 35.023438 C 86.265625 35.382812 85.0625 35.804688 83.890625 36.285156 M 84.609375 28.472656 C 83.753906 28.75 82.90625 29.046875 82.070312 29.375 L 81.175781 43.046875 C 81.984375 42.550781 82.820312 42.089844 83.671875 41.667969 L 83.804688 38.480469 C 85.449219 37.753906 87.167969 37.152344 88.941406 36.6875 L 91.039062 39.097656 C 91.964844 38.898438 92.898438 38.738281 93.851562 38.617188 Z M 121.671875 36.917969 C 123.476562 36.496094 126.792969 39.792969 127.429688 42.023438 C 127.953125 41.621094 129.132812 40.761719 129.132812 40.761719 C 127.726562 36.769531 122.144531 32.777344 119.492188 35.273438 C 117.914062 36.757812 118.808594 39.050781 120.183594 40.496094 L 121.515625 41.898438 C 122.878906 43.335938 124.0625 44.761719 122.972656 45.660156 C 121.808594 46.625 118.546875 44.210938 116.59375 40.066406 L 114.839844 41.394531 C 115.257812 42.484375 116.203125 44.058594 117.472656 45.394531 C 118.910156 46.914062 120.476562 47.898438 121.878906 48.171875 C 122.984375 48.390625 124.082031 48.226562 124.804688 47.550781 C 126.617188 45.875 125.960938 43.429688 123.117188 40.441406 L 121.9375 39.203125 C 120.632812 37.824219 121.164062 37.039062 121.671875 36.917969 M 68.714844 40.421875 L 72 36.820312 C 72.738281 36.007812 74 35.949219 74.8125 36.6875 C 75.625 37.425781 75.683594 38.6875 74.941406 39.5 L 71.65625 43.109375 Z M 75.960938 47.03125 L 73.230469 44.539062 L 76.617188 40.816406 C 78.148438 39.132812 78.148438 36.429688 76.46875 34.898438 C 74.785156 33.367188 72.050781 33.578125 70.519531 35.257812 L 65.492188 40.789062 L 74.246094 48.761719 C 74.792969 48.160156 75.375 47.585938 75.960938 47.03125 M 97.765625 28.605469 L 102.246094 28.605469 C 103.34375 28.605469 104.238281 29.5 104.238281 30.597656 C 104.238281 31.695312 103.34375 32.589844 102.246094 32.589844 L 97.765625 32.589844 Z M 97.765625 38.367188 L 97.765625 34.722656 L 100.820312 34.722656 L 103.453125 38.886719 C 104.5 39.074219 105.523438 39.316406 106.53125 39.601562 L 103.375 34.566406 C 105.183594 34.085938 106.675781 32.488281 106.675781 30.597656 C 106.675781 28.324219 104.523438 26.472656 102.246094 26.472656 L 95.328125 26.472656 L 95.328125 38.472656 C 96.132812 38.410156 96.941406 38.367188 97.761719 38.367188 Z M 111.117188 41.316406 L 115.75 30.171875 C 114.988281 29.832031 114.21875 29.511719 113.441406 29.21875 L 108.808594 40.355469 C 109.59375 40.640625 110.363281 40.964844 111.117188 41.316406 "/>
<path style=" stroke:none;fill-rule:nonzero;fill:rgb(89.019608%,2.352941%,7.45098%);fill-opacity:1;" d="M 107.257812 69.667969 C 103.0625 62.3125 100.585938 53.628906 100.402344 43.472656 C 99.601562 43.398438 98.785156 43.359375 97.964844 43.359375 C 97.132812 43.359375 96.320312 43.398438 95.507812 43.476562 C 95.320312 53.628906 92.839844 62.3125 88.648438 69.667969 Z M 107.871094 70.714844 L 88.03125 70.714844 C 84.746094 76.171875 80.5 80.875 75.539062 84.878906 C 77.683594 88.140625 80.519531 90.914062 83.839844 92.976562 C 83.71875 92.265625 83.652344 91.542969 83.652344 90.804688 C 83.652344 83.414062 90.054688 77.417969 97.964844 77.417969 C 105.867188 77.417969 112.269531 83.414062 112.269531 90.804688 C 112.269531 91.542969 112.203125 92.265625 112.082031 92.976562 C 115.398438 90.917969 118.234375 88.152344 120.375 84.890625 C 115.410156 80.882812 111.160156 76.175781 107.871094 70.714844 "/>
<path style=" stroke:none;fill-rule:nonzero;fill:rgb(100%,100%,100%);fill-opacity:1;" d="M 101.75 43.632812 C 114.765625 45.46875 124.777344 56.652344 124.777344 70.179688 C 124.777344 74.507812 123.75 78.59375 121.921875 82.21875 C 110.105469 73.355469 102.925781 60.863281 101.75 43.632812 M 112.082031 92.976562 C 112.203125 92.265625 112.269531 91.542969 112.269531 90.804688 C 112.269531 83.414062 105.867188 77.417969 97.960938 77.417969 C 90.054688 77.417969 83.648438 83.414062 83.648438 90.804688 C 83.648438 91.542969 83.71875 92.265625 83.84375 92.976562 C 80.519531 90.914062 77.683594 88.140625 75.539062 84.878906 C 80.5 80.875 84.746094 76.171875 88.03125 70.714844 L 107.871094 70.714844 C 111.160156 76.175781 115.410156 80.882812 120.375 84.890625 C 118.234375 88.152344 115.398438 90.917969 112.082031 92.976562 M 107.585938 95.207031 C 104.59375 96.359375 101.355469 96.996094 97.960938 96.996094 C 94.570312 96.996094 91.328125 96.359375 88.339844 95.207031 C 87.25 93.550781 86.617188 91.597656 86.617188 89.5 C 86.617188 83.554688 91.695312 78.726562 97.960938 78.726562 C 104.230469 78.726562 109.304688 83.554688 109.304688 89.5 C 109.304688 91.597656 108.679688 93.550781 107.585938 95.207031 M 71.144531 70.179688 C 71.144531 56.652344 81.160156 45.46875 94.179688 43.632812 C 93 60.863281 85.824219 73.359375 74 82.222656 C 72.179688 78.601562 71.144531 74.511719 71.144531 70.179688 M 97.960938 43.359375 C 98.785156 43.359375 99.59375 43.398438 100.402344 43.476562 C 100.585938 53.628906 103.066406 62.3125 107.261719 69.667969 L 88.648438 69.667969 C 92.839844 62.3125 95.320312 53.628906 95.507812 43.476562 C 96.3125 43.402344 97.132812 43.359375 97.960938 43.359375 M 97.960938 41.425781 C 82.109375 41.425781 69.214844 54.324219 69.214844 70.179688 C 69.214844 86.027344 82.109375 98.925781 97.960938 98.925781 C 113.8125 98.925781 126.710938 86.027344 126.710938 70.179688 C 126.710938 54.324219 113.8125 41.425781 97.960938 41.425781 "/>
<path style=" stroke:none;fill-rule:nonzero;fill:rgb(80.784314%,67.058824%,36.470588%);fill-opacity:1;" d="M 102.328125 87.558594 C 100.9375 87.558594 99.605469 88.679688 98.835938 90.722656 C 98.816406 90.75 98.804688 90.78125 98.804688 90.816406 C 98.804688 90.945312 98.910156 91.054688 99.039062 91.054688 C 99.128906 91.054688 99.210938 91.003906 99.253906 90.925781 C 99.253906 90.921875 99.253906 90.921875 99.253906 90.917969 C 99.257812 90.917969 99.257812 90.914062 99.257812 90.914062 C 99.851562 89.632812 100.953125 89.03125 101.578125 89.03125 C 101.929688 89.03125 102.214844 89.3125 102.214844 89.664062 C 102.214844 90.019531 101.929688 90.304688 101.578125 90.304688 C 101.546875 90.304688 101.496094 90.296875 101.464844 90.292969 C 101.4375 90.289062 101.367188 90.269531 101.335938 90.347656 C 101.308594 90.414062 101.253906 90.71875 101.527344 91.03125 C 101.6875 91.210938 102.015625 91.359375 102.328125 91.359375 C 103.382812 91.359375 104.230469 90.507812 104.230469 89.460938 C 104.230469 88.40625 103.382812 87.558594 102.328125 87.558594 M 97.03125 90.71875 C 96.253906 88.675781 94.917969 87.558594 93.535156 87.558594 C 92.480469 87.558594 91.632812 88.410156 91.632812 89.460938 C 91.632812 90.507812 92.480469 91.359375 93.535156 91.359375 C 93.84375 91.359375 94.171875 91.210938 94.332031 91.03125 C 94.605469 90.71875 94.554688 90.414062 94.527344 90.351562 C 94.492188 90.269531 94.425781 90.289062 94.398438 90.292969 C 94.367188 90.296875 94.316406 90.304688 94.285156 90.304688 C 93.929688 90.304688 93.648438 90.019531 93.648438 89.664062 C 93.648438 89.320312 93.929688 89.03125 94.285156 89.03125 C 94.90625 89.03125 96.011719 89.632812 96.601562 90.914062 C 96.601562 90.917969 96.605469 90.917969 96.605469 90.917969 C 96.605469 90.921875 96.609375 90.925781 96.609375 90.925781 C 96.648438 91.003906 96.726562 91.058594 96.820312 91.054688 C 96.953125 91.054688 97.054688 90.945312 97.050781 90.816406 C 97.050781 90.78125 97.042969 90.75 97.03125 90.722656 M 99.828125 86.679688 C 99.828125 85.585938 98.398438 82.164062 97.964844 82.164062 C 97.929688 82.164062 97.894531 82.179688 97.855469 82.214844 C 97.335938 82.632812 96.09375 85.660156 96.09375 86.679688 C 96.09375 87.496094 97.746094 89.652344 97.746094 90.820312 C 97.746094 90.941406 97.839844 91.035156 97.964844 91.035156 C 98.082031 91.035156 98.179688 90.941406 98.179688 90.820312 C 98.179688 90.816406 98.179688 90.8125 98.179688 90.8125 C 98.183594 89.640625 99.828125 87.496094 99.828125 86.679688 M 98.914062 92.699219 C 98.601562 92.507812 98.363281 92.199219 98.277344 91.835938 C 98.238281 91.695312 98.113281 91.59375 97.960938 91.59375 C 97.808594 91.59375 97.679688 91.695312 97.644531 91.835938 C 97.558594 92.199219 97.320312 92.507812 97.007812 92.699219 C 96.945312 92.730469 96.941406 92.757812 96.96875 92.800781 C 97.15625 93.179688 97.480469 93.648438 97.871094 93.96875 C 97.925781 94.007812 97.949219 94.011719 97.960938 94.011719 C 97.976562 94.011719 97.996094 94.007812 98.050781 93.96875 C 98.445312 93.648438 98.765625 93.179688 98.953125 92.800781 C 98.976562 92.757812 98.96875 92.730469 98.914062 92.699219 "/>
<path style=" stroke:none;fill-rule:nonzero;fill:rgb(100%,100%,100%);fill-opacity:1;" d="M 92.070312 107.785156 L 90.472656 107.429688 L 90.617188 106.78125 L 92.21875 107.140625 Z M 72.3125 94.902344 C 71.941406 93.53125 70.550781 92.183594 69.5 92.183594 C 69.261719 92.183594 69.054688 92.253906 68.875 92.386719 C 68.660156 92.546875 68.539062 92.753906 68.5 93.007812 C 68.441406 93.410156 68.601562 93.921875 68.933594 94.363281 L 69.417969 95 C 69.785156 95.5 70.144531 96.015625 70.070312 96.429688 C 70.039062 96.59375 69.945312 96.722656 69.789062 96.824219 C 69.707031 96.878906 69.613281 96.902344 69.503906 96.902344 C 68.851562 96.902344 67.753906 95.742188 67.210938 94.085938 L 67.195312 94.054688 L 66.726562 94.5 L 66.71875 94.507812 L 66.71875 94.519531 C 66.828125 94.933594 67.109375 95.601562 67.585938 96.242188 C 68.082031 96.90625 68.652344 97.371094 69.1875 97.542969 C 69.363281 97.597656 69.53125 97.625 69.691406 97.625 C 69.925781 97.625 70.136719 97.566406 70.292969 97.453125 C 70.550781 97.261719 70.707031 97.019531 70.746094 96.734375 C 70.828125 96.203125 70.546875 95.503906 69.914062 94.65625 L 69.488281 94.085938 C 69.152344 93.632812 69.164062 93.34375 69.234375 93.171875 C 69.304688 93.027344 69.433594 92.929688 69.589844 92.910156 C 69.613281 92.90625 69.636719 92.90625 69.664062 92.90625 C 70.433594 92.90625 71.527344 94.1875 71.808594 95.179688 L 71.820312 95.203125 L 71.839844 95.1875 C 72 95.097656 72.1875 94.992188 72.300781 94.921875 L 72.316406 94.914062 Z M 115.875 100.703125 L 115.300781 100.992188 L 115.199219 104.183594 L 112.566406 102.390625 L 111.984375 102.683594 L 113.949219 106.726562 L 114.539062 106.46875 L 113.175781 103.59375 L 113.183594 103.585938 L 115.800781 105.355469 L 115.902344 102.203125 L 115.910156 102.195312 L 117.441406 104.992188 L 118 104.675781 Z M 123.488281 94.65625 L 127.820312 94.957031 L 127.828125 94.945312 L 125.289062 92.664062 L 125.722656 92.179688 L 129.0625 95.1875 L 128.675781 95.667969 L 124.300781 95.371094 L 124.289062 95.378906 L 126.867188 97.695312 L 126.410156 98.160156 L 123.0625 95.136719 Z M 121.707031 96.417969 L 124.777344 99.722656 L 124.296875 100.152344 L 121.234375 96.859375 Z M 119.058594 99.527344 L 119.386719 101.210938 L 120.539062 100.390625 Z M 123.109375 101.148438 L 122.546875 101.601562 L 121.15625 100.75 L 119.519531 101.910156 L 119.835938 103.542969 L 119.257812 103.910156 L 118.3125 99.070312 L 118.894531 98.65625 Z M 107.4375 104.9375 L 107.820312 106.207031 L 109.734375 105.628906 C 110.203125 105.488281 110.394531 105.167969 110.269531 104.75 C 110.121094 104.261719 109.710938 104.253906 109.355469 104.363281 Z M 109.171875 103.742188 C 109.859375 103.53125 110.625 103.683594 110.886719 104.5625 C 111.171875 105.496094 110.632812 105.980469 110.277344 106.117188 L 111.6875 107.632812 L 111 107.875 L 109.609375 106.34375 L 108.007812 106.824219 L 108.546875 108.632812 L 107.929688 108.808594 L 106.632812 104.503906 Z M 105.085938 104.871094 L 105.179688 105.515625 L 102.171875 105.949219 L 102.34375 107.113281 L 103.855469 106.894531 L 103.945312 107.539062 L 102.433594 107.757812 L 102.628906 109.117188 L 105.742188 108.667969 L 105.835938 109.304688 L 102.078125 109.847656 L 101.441406 105.398438 Z M 98.078125 107.59375 L 100.140625 107.625 L 100.125 108.820312 C 100.105469 109.628906 99.210938 110.15625 98.082031 110.136719 C 96.886719 110.113281 95.648438 109.273438 95.675781 107.75 C 95.695312 106.460938 96.734375 105.429688 98.171875 105.453125 C 99.242188 105.464844 99.800781 106.039062 100.058594 106.292969 L 99.605469 106.75 C 99.386719 106.527344 99.042969 106.113281 98.226562 106.097656 C 97.035156 106.074219 96.332031 106.84375 96.320312 107.785156 C 96.304688 108.667969 96.988281 109.46875 98.128906 109.488281 C 98.90625 109.503906 99.46875 109.148438 99.472656 108.769531 L 99.480469 108.261719 L 98.070312 108.242188 Z M 88.195312 104.234375 L 87.984375 104.84375 L 86.496094 104.328125 L 85.21875 108 L 84.605469 107.785156 L 85.882812 104.117188 L 84.390625 103.597656 L 84.605469 102.984375 Z M 80.421875 100.914062 L 81.203125 105.179688 L 81.210938 105.183594 L 82.800781 102.160156 L 83.375 102.460938 L 81.285156 106.445312 L 80.714844 106.1875 L 79.929688 101.867188 L 79.921875 101.863281 L 78.308594 104.9375 L 77.75 104.609375 L 79.851562 100.609375 Z M 78.449219 99.65625 L 75.929688 103.472656 L 75.386719 103.117188 L 77.90625 99.296875 Z M 74.589844 97.757812 L 73.039062 98.492188 L 74.117188 99.40625 Z M 74.011719 102.128906 L 73.429688 101.695312 L 73.917969 100.09375 L 72.386719 98.792969 L 70.871094 99.511719 L 70.351562 99.042969 L 74.84375 96.921875 L 75.390625 97.382812 Z M 74.011719 102.128906 "/>
</g>
</svg>
