<?xml version="1.0" encoding="UTF-8"?>
<svg xmlns="http://www.w3.org/2000/svg" xmlns:xlink="http://www.w3.org/1999/xlink" width="99px" height="145px" viewBox="0 0 99 145" version="1.1">
<g id="surface1">
<path style=" stroke:none;fill-rule:nonzero;fill:rgb(3.529412%,10.980392%,24.313725%);fill-opacity:1;" d="M 64.710938 119.027344 C 63.292969 119.058594 62.191406 120.210938 62.214844 121.617188 C 62.246094 123.03125 63.40625 124.121094 64.828125 124.097656 L 64.890625 124.097656 C 66.28125 124.066406 67.382812 122.949219 67.351562 121.59375 L 67.351562 121.503906 C 67.296875 120.09375 66.136719 119.003906 64.710938 119.027344 Z M 38.210938 118.828125 C 36.984375 118.828125 35.941406 119.722656 35.707031 120.902344 L 40.671875 120.902344 C 40.441406 119.722656 39.425781 118.828125 38.210938 118.828125 Z M 28.800781 118.828125 C 27.234375 118.828125 25.980469 120.09375 25.980469 121.648438 C 25.980469 123.203125 27.265625 124.441406 28.828125 124.441406 C 30.394531 124.441406 31.648438 123.179688 31.648438 121.648438 L 31.648438 121.617188 C 31.648438 120.066406 30.367188 118.828125 28.800781 118.828125 Z M 28.800781 118.828125 "/>
<path style=" stroke:none;fill-rule:nonzero;fill:rgb(3.529412%,10.980392%,24.313725%);fill-opacity:1;" d="M 0.03125 0.515625 L 0.03125 144.484375 L 98.96875 144.484375 L 98.96875 0.515625 Z M 84.628906 53.929688 C 79.460938 64.726562 73.65625 74.144531 66.136719 83.300781 C 55.652344 84.882812 45.4375 84.652344 34.171875 83.585938 L 41.519531 71.894531 C 47.40625 72.238281 53.304688 72.214844 59.199219 71.753906 C 63.40625 66.105469 67.121094 60.117188 70.257812 53.84375 C 67.761719 48.945312 64.914062 44.25 61.722656 39.792969 L 69.039062 28.1875 C 75.101562 36.132812 80.621094 44.597656 84.628906 53.929688 Z M 74.640625 100.632812 L 74.121094 98.359375 L 78.066406 96.195312 L 79.605469 96.195312 L 79.605469 106.878906 L 77.019531 106.878906 L 77.019531 99.335938 Z M 40.554688 104.777344 C 41.140625 104.804688 41.71875 104.691406 42.242188 104.433594 L 42.242188 101.691406 L 44.738281 101.378906 L 44.738281 105.730469 C 44.1875 106.191406 42.855469 107.050781 40.414062 107.050781 C 36.808594 107.050781 34.316406 104.605469 34.316406 101.554688 C 34.316406 98.496094 36.785156 96.082031 40.472656 96.082031 C 41.832031 96.019531 43.199219 96.28125 44.449219 96.832031 L 43.777344 99.164062 C 42.761719 98.671875 41.660156 98.441406 40.554688 98.496094 C 38.523438 98.496094 37.132812 99.679688 37.132812 101.578125 C 37.132812 103.480469 38.640625 104.777344 40.554688 104.777344 Z M 39.980469 51.714844 C 39.980469 46.503906 44.246094 42.265625 49.5 42.265625 C 54.753906 42.296875 59.019531 46.503906 59.019531 51.714844 C 59.019531 56.925781 54.753906 61.15625 49.5 61.15625 C 44.246094 61.15625 39.980469 56.925781 39.980469 51.714844 Z M 32.863281 20.15625 C 43.464844 18.886719 54.203125 18.800781 64.828125 19.867188 L 57.453125 31.554688 C 51.558594 31.210938 45.671875 31.242188 39.773438 31.699219 C 35.535156 37.316406 31.820312 43.308594 28.679688 49.609375 C 31.238281 54.476562 34.085938 59.171875 37.246094 63.660156 L 29.933594 75.265625 C 23.601562 66.972656 18.464844 58.882812 14.371094 49.578125 C 19.246094 39.015625 25.460938 29.136719 32.863281 20.15625 Z M 31.851562 96.226562 L 31.851562 106.90625 L 29.148438 106.90625 L 29.148438 96.226562 Z M 27.175781 104.691406 L 27.175781 106.9375 L 19.335938 106.9375 L 19.335938 96.25 L 22.0625 96.25 L 22.0625 104.722656 Z M 22.933594 125.683594 L 21.28125 125.683594 L 21.28125 124.613281 C 20.496094 125.421875 19.421875 125.851562 18.320312 125.851562 C 15.910156 125.851562 14.082031 124.121094 14.082031 121.480469 L 14.082031 114.507812 L 15.792969 114.507812 L 15.792969 121.386719 C 15.792969 123.179688 16.980469 124.324219 18.519531 124.324219 C 20.058594 124.324219 21.28125 123.144531 21.28125 121.363281 L 21.28125 114.507812 L 22.964844 114.507812 Z M 28.945312 125.886719 C 27.84375 125.886719 26.796875 125.453125 26.039062 124.671875 L 26.039062 125.683594 L 24.441406 125.683594 L 24.441406 114.539062 L 26.039062 114.539062 L 26.039062 118.597656 C 26.796875 117.820312 27.84375 117.390625 28.945312 117.390625 L 29.382812 117.390625 C 31.730469 117.507812 33.566406 119.492188 33.445312 121.824219 C 33.300781 124.214844 31.292969 126 28.945312 125.886719 Z M 38.347656 124.472656 C 39.28125 124.5 40.179688 124.039062 40.703125 123.292969 L 41.863281 124.121094 C 41.054688 125.246094 39.71875 125.886719 38.324219 125.851562 L 38.144531 125.851562 C 35.824219 125.820312 33.9375 123.925781 33.96875 121.59375 C 33.96875 119.289062 35.824219 117.417969 38.144531 117.390625 C 40.5 117.390625 42.242188 119.203125 42.242188 121.617188 L 42.242188 122.109375 L 35.648438 122.109375 C 35.855469 123.464844 37.015625 124.441406 38.347656 124.472656 Z M 47.5 119.003906 L 46.832031 119.003906 C 45.785156 119.003906 45.03125 119.804688 45.03125 121.074219 L 45.03125 125.683594 L 43.402344 125.683594 L 43.402344 117.5625 L 44.9375 117.5625 L 44.9375 118.542969 L 45.003906 118.542969 C 45.40625 117.875 46.132812 117.472656 46.914062 117.507812 L 47.5 117.507812 Z M 47.175781 102.21875 L 47.175781 96.226562 L 49.878906 96.226562 L 49.878906 102.414062 C 49.9375 103.652344 50.921875 104.628906 52.167969 104.691406 C 53.507812 104.746094 54.636719 103.742188 54.699219 102.414062 L 54.726562 96.226562 L 57.429688 96.226562 L 57.429688 102.21875 C 57.429688 105.382812 55.363281 107.050781 52.316406 107.050781 C 49.238281 107.050781 47.175781 105.410156 47.175781 102.21875 Z M 59.398438 116.4375 L 53.652344 116.4375 L 53.652344 119.140625 L 59.253906 119.140625 L 59.253906 120.988281 L 53.652344 120.988281 L 53.652344 123.753906 L 59.398438 123.753906 L 59.398438 125.683594 L 51.5 125.683594 L 51.5 114.507812 L 59.398438 114.507812 Z M 60.359375 96.226562 L 68.257812 96.226562 L 68.257812 98.472656 L 63.058594 98.472656 L 63.058594 100.402344 L 67.269531 100.402344 L 67.269531 102.503906 L 63.058594 102.503906 L 63.089844 104.660156 L 68.429688 104.660156 L 68.429688 106.90625 L 60.386719 106.90625 L 60.386719 96.226562 Z M 69.414062 125.683594 L 67.296875 125.683594 L 67.296875 124.933594 C 66.539062 125.535156 65.613281 125.886719 64.652344 125.886719 L 64.480469 125.886719 C 62.304688 125.683594 60.589844 123.925781 60.503906 121.765625 C 60.386719 119.375 62.273438 117.359375 64.683594 117.246094 C 65.640625 117.246094 66.601562 117.589844 67.328125 118.195312 L 67.328125 117.441406 L 69.414062 117.417969 Z M 76.382812 119.320312 L 74.035156 119.320312 L 74.035156 123.179688 C 74.035156 123.605469 74.351562 123.808594 74.816406 123.808594 L 76.382812 123.808594 L 76.382812 125.683594 L 74.121094 125.683594 C 72.695312 125.683594 71.914062 124.816406 71.914062 123.695312 L 71.914062 119.320312 L 70.320312 119.320312 L 70.320312 117.441406 L 71.914062 117.441406 L 71.914062 115.113281 L 74.003906 115.113281 L 74.003906 117.441406 L 76.355469 117.441406 Z M 81.203125 125.910156 C 78.589844 125.910156 77.308594 124.761719 77.050781 123.0625 L 79.144531 123.0625 C 79.402344 123.984375 80.101562 124.238281 81.320312 124.238281 C 82.25 124.238281 82.859375 123.925781 82.859375 123.410156 C 82.859375 123.085938 82.628906 122.855469 81.839844 122.71875 L 79.839844 122.253906 C 78.011719 121.878906 77.167969 121.101562 77.167969 119.894531 C 77.167969 118.164062 78.707031 117.277344 80.886719 117.277344 C 83.410156 117.277344 84.65625 118.394531 84.769531 120.125 L 82.6875 120.125 C 82.480469 119.203125 81.757812 118.941406 80.765625 118.941406 C 79.867188 118.941406 79.34375 119.230469 79.34375 119.75 C 79.34375 120.125 79.695312 120.324219 80.710938 120.496094 L 82.511719 120.871094 C 84.195312 121.25 85.007812 122.078125 85.007812 123.203125 C 84.976562 124.761719 83.609375 125.910156 81.203125 125.910156 Z M 81.203125 125.910156 "/>
<path style=" stroke:none;fill-rule:nonzero;fill:rgb(2.352941%,75.686275%,40.392157%);fill-opacity:1;" d="M 74.003906 115.113281 L 71.914062 115.113281 L 71.914062 117.441406 L 70.320312 117.441406 L 70.320312 119.320312 L 71.914062 119.320312 L 71.914062 123.695312 C 71.914062 124.785156 72.695312 125.683594 74.121094 125.683594 L 76.382812 125.683594 L 76.382812 123.808594 L 74.816406 123.808594 C 74.320312 123.808594 74.035156 123.605469 74.035156 123.179688 L 74.035156 119.320312 L 76.382812 119.320312 L 76.382812 117.441406 L 74.035156 117.441406 Z M 51.53125 125.683594 L 59.398438 125.683594 L 59.398438 123.777344 L 53.652344 123.777344 L 53.652344 121.019531 L 59.253906 121.019531 L 59.253906 119.171875 L 53.652344 119.171875 L 53.652344 116.4375 L 59.398438 116.4375 L 59.398438 114.539062 L 51.53125 114.539062 Z M 67.296875 118.21875 C 66.574219 117.589844 65.613281 117.277344 64.652344 117.277344 C 62.246094 117.390625 60.386719 119.402344 60.476562 121.792969 C 60.558594 123.953125 62.273438 125.738281 64.453125 125.910156 L 64.628906 125.910156 C 65.582031 125.910156 66.539062 125.566406 67.269531 124.960938 L 67.269531 125.707031 L 69.355469 125.707031 L 69.355469 117.472656 L 67.269531 117.507812 Z M 67.328125 121.5625 L 67.328125 121.59375 C 67.351562 122.972656 66.25 124.097656 64.859375 124.097656 L 64.800781 124.097656 C 63.375 124.121094 62.214844 123.003906 62.191406 121.617188 C 62.160156 120.210938 63.292969 119.058594 64.683594 119.027344 C 66.105469 119.003906 67.269531 120.125 67.296875 121.503906 Z M 82.480469 120.839844 L 80.679688 120.472656 C 79.664062 120.265625 79.320312 120.09375 79.320312 119.722656 C 79.320312 119.203125 79.839844 118.910156 80.738281 118.910156 C 81.722656 118.910156 82.480469 119.171875 82.65625 120.09375 L 84.746094 120.09375 C 84.628906 118.367188 83.378906 117.246094 80.859375 117.246094 C 78.679688 117.246094 77.140625 118.136719 77.140625 119.863281 C 77.140625 121.074219 77.976562 121.847656 79.8125 122.226562 L 81.8125 122.6875 C 82.59375 122.832031 82.824219 123.0625 82.824219 123.375 C 82.824219 123.890625 82.25 124.214844 81.289062 124.214844 C 80.070312 124.214844 79.402344 123.953125 79.113281 123.03125 L 77.019531 123.03125 C 77.28125 124.761719 78.5625 125.886719 81.171875 125.886719 C 83.585938 125.886719 84.949219 124.730469 84.949219 123.144531 C 84.976562 122.054688 84.164062 121.21875 82.480469 120.839844 Z M 82.480469 120.839844 "/>
<path style=" stroke:none;fill-rule:nonzero;fill:rgb(100%,100%,100%);fill-opacity:1;" d="M 45.003906 118.566406 L 44.9375 118.566406 L 44.9375 117.589844 L 43.402344 117.589844 L 43.402344 125.707031 L 45.03125 125.707031 L 45.03125 121.101562 C 45.03125 119.835938 45.785156 119.027344 46.832031 119.027344 L 47.5 119.027344 L 47.5 117.53125 L 46.914062 117.53125 C 46.164062 117.507812 45.40625 117.90625 45.003906 118.566406 Z M 42.300781 121.648438 C 42.300781 119.230469 40.554688 117.417969 38.210938 117.417969 C 35.886719 117.441406 33.996094 119.320312 34.027344 121.617188 C 33.996094 123.925781 35.855469 125.851562 38.210938 125.886719 L 38.378906 125.886719 C 39.773438 125.910156 41.082031 125.277344 41.925781 124.15625 L 40.761719 123.316406 C 40.210938 124.066406 39.339844 124.5 38.410156 124.5 C 37.046875 124.5 35.910156 123.523438 35.707031 122.167969 L 42.328125 122.167969 Z M 35.707031 120.902344 C 35.941406 119.6875 36.984375 118.828125 38.210938 118.828125 C 39.425781 118.855469 40.472656 119.722656 40.671875 120.902344 Z M 21.253906 121.417969 C 21.253906 123.203125 20.058594 124.382812 18.496094 124.382812 C 16.925781 124.382812 15.765625 123.234375 15.765625 121.449219 L 15.765625 114.570312 L 14.050781 114.570312 L 14.050781 121.535156 C 14.050781 124.15625 15.910156 125.910156 18.289062 125.910156 C 19.421875 125.910156 20.464844 125.476562 21.253906 124.671875 L 21.253906 125.738281 L 22.90625 125.738281 L 22.90625 114.59375 L 21.21875 114.59375 Z M 29.347656 117.417969 L 28.914062 117.417969 C 27.84375 117.417969 26.796875 117.851562 26.011719 118.625 L 26.011719 114.570312 L 24.417969 114.570312 L 24.417969 125.683594 L 26.011719 125.683594 L 26.011719 124.671875 C 26.769531 125.453125 27.84375 125.886719 28.914062 125.886719 C 31.265625 126 33.269531 124.1875 33.386719 121.847656 C 33.53125 119.519531 31.703125 117.53125 29.347656 117.417969 Z M 31.648438 121.648438 C 31.648438 123.203125 30.394531 124.441406 28.828125 124.441406 C 27.265625 124.441406 25.980469 123.203125 25.980469 121.648438 C 25.980469 120.09375 27.234375 118.828125 28.800781 118.828125 C 30.367188 118.828125 31.648438 120.066406 31.648438 121.648438 Z M 57.429688 102.21875 L 57.429688 96.226562 L 54.726562 96.226562 L 54.699219 102.414062 C 54.636719 103.742188 53.507812 104.746094 52.167969 104.691406 C 50.921875 104.628906 49.9375 103.652344 49.878906 102.414062 L 49.878906 96.226562 L 47.175781 96.226562 L 47.175781 102.21875 C 47.175781 105.382812 49.238281 107.050781 52.285156 107.050781 C 55.363281 107.050781 57.429688 105.410156 57.429688 102.21875 Z M 68.398438 104.691406 L 63.058594 104.691406 L 63.058594 102.53125 L 67.269531 102.53125 L 67.269531 100.402344 L 63.058594 100.402344 L 63.058594 98.472656 L 68.257812 98.472656 L 68.257812 96.226562 L 60.359375 96.226562 L 60.359375 106.90625 L 68.398438 106.90625 Z M 40.53125 98.496094 C 41.632812 98.472656 42.761719 98.703125 43.753906 99.164062 L 44.417969 96.832031 C 43.167969 96.28125 41.808594 96.019531 40.441406 96.082031 C 36.785156 96.082031 34.289062 98.496094 34.289062 101.554688 C 34.289062 104.605469 36.753906 107.050781 40.386719 107.050781 C 42.824219 107.050781 44.15625 106.191406 44.707031 105.730469 L 44.707031 101.378906 L 42.214844 101.691406 L 42.214844 104.433594 C 41.695312 104.660156 41.109375 104.777344 40.53125 104.777344 C 38.613281 104.777344 37.074219 103.457031 37.074219 101.554688 C 37.074219 99.648438 38.496094 98.496094 40.53125 98.496094 Z M 79.632812 106.90625 L 79.632812 96.226562 L 78.097656 96.226562 L 74.121094 98.386719 L 74.640625 100.632812 L 77.019531 99.394531 L 77.019531 106.90625 Z M 19.335938 96.226562 L 19.335938 106.90625 L 27.175781 106.90625 L 27.175781 104.691406 L 22.0625 104.691406 L 22.0625 96.226562 Z M 29.148438 96.226562 L 31.851562 96.226562 L 31.851562 106.90625 L 29.148438 106.90625 Z M 29.148438 96.226562 "/>
<path style=" stroke:none;fill-rule:nonzero;fill:rgb(80.392157%,98.431373%,3.921569%);fill-opacity:1;" d="M 70.285156 53.867188 C 67.121094 60.148438 63.433594 66.136719 59.226562 71.777344 C 53.328125 72.214844 47.441406 72.269531 41.546875 71.925781 L 34.199219 83.613281 C 45.464844 84.675781 55.683594 84.9375 66.167969 83.324219 C 73.683594 74.167969 79.488281 64.753906 84.65625 53.960938 C 80.652344 44.65625 75.167969 36.167969 69.097656 28.214844 L 61.78125 39.816406 C 64.945312 44.25 67.789062 48.980469 70.285156 53.867188 Z M 37.277344 63.628906 C 34.109375 59.140625 31.265625 54.445312 28.714844 49.578125 C 31.851562 43.308594 35.566406 37.316406 39.800781 31.667969 C 45.695312 31.242188 51.59375 31.183594 57.480469 31.53125 L 64.859375 19.835938 C 54.234375 18.769531 43.519531 18.859375 32.894531 20.125 C 25.488281 29.109375 19.277344 38.984375 14.398438 49.554688 C 18.496094 58.828125 23.632812 66.941406 29.960938 75.234375 Z M 37.277344 63.628906 "/>
<path style=" stroke:none;fill-rule:nonzero;fill:rgb(100%,100%,100%);fill-opacity:1;" d="M 49.5 61.15625 C 54.753906 61.15625 59.019531 56.925781 59.019531 51.714844 C 58.992188 46.503906 54.753906 42.265625 49.5 42.265625 C 44.246094 42.265625 39.980469 46.503906 39.980469 51.714844 C 39.980469 56.925781 44.246094 61.15625 49.5 61.15625 Z M 49.5 61.15625 "/>
</g>
</svg>
